<?xml version="1.0" encoding="UTF-8"?>
<svg version="1.1" xmlns="http://www.w3.org/2000/svg" width="256" height="256" viewBox="11.64 11.64 232.73 232.73">
<path d="M0 0 C84.48 0 168.96 0 256 0 C256 84.48 256 168.96 256 256 C171.52 256 87.04 256 0 256 C0 171.52 0 87.04 0 0 Z " fill="#222222" transform="translate(0,0)"/>
<path d="M0 0 C2.66165084 0.61896141 3.84334798 1.61831132 5.84841919 3.46292114 C6.54348572 4.10046326 7.23855225 4.73800537 7.9546814 5.39486694 C11.82775652 9.10045774 15.62800017 12.87162526 19.39871216 16.68118286 C20.24829498 17.53455231 21.09787781 18.38792175 21.97320557 19.26715088 C24.66176585 21.96783866 27.3470377 24.67175904 30.03152466 27.37649536 C33.5885779 30.9600655 37.14887798 34.54036323 40.71121216 38.11868286 C41.52887054 38.94463959 42.34652893 39.77059631 43.18896484 40.62158203 C43.94380157 41.37972198 44.69863831 42.13786194 45.47634888 42.91897583 C46.14060883 43.5884726 46.80486877 44.25796936 47.48925781 44.94775391 C49.08943155 46.58570533 49.08943155 46.58570533 51.15652466 47.50149536 C51.15430405 46.92742447 51.15208344 46.35335358 51.14979553 45.7618866 C51.12774209 39.80896627 51.11261782 33.85605746 51.10159302 27.90310669 C51.09655149 25.67881804 51.08971843 23.45453273 51.08108521 21.23025513 C51.06901167 18.04071227 51.0632947 14.85121307 51.05886841 11.66165161 C51.05370712 10.66061905 51.04854584 9.65958649 51.04322815 8.6282196 C51.04315262 7.70734055 51.04307709 6.78646149 51.04299927 5.837677 C51.04077866 5.02271255 51.03855804 4.20774811 51.03627014 3.36808777 C51.15652466 1.50149536 51.15652466 1.50149536 52.15652466 0.50149536 C53.5963368 0.40375596 55.04091369 0.37517823 56.48403931 0.37451172 C57.41793991 0.37169189 58.35184052 0.36887207 59.31404114 0.3659668 C60.86318962 0.36900314 60.86318962 0.36900314 62.44363403 0.37210083 C63.5248201 0.37034851 64.60600616 0.36859619 65.71995544 0.36679077 C69.31341125 0.36236978 72.90681831 0.36531112 76.50027466 0.36868286 C78.98509735 0.36800989 81.46991997 0.36703993 83.95474243 0.36578369 C89.83965841 0.36411678 95.72455653 0.36762959 101.60946989 0.37293446 C106.31022064 0.37668928 111.01095046 0.37536169 115.71170044 0.37112427 C122.17726756 0.36534499 128.64281437 0.36441084 135.10838318 0.3676796 C137.58045964 0.36834911 140.05253696 0.36751959 142.52461243 0.36520004 C145.97290364 0.36267497 149.42112901 0.36651206 152.86941528 0.37210083 C153.90218094 0.3700766 154.93494659 0.36805237 155.99900818 0.3659668 C157.39985909 0.37019653 157.39985909 0.37019653 158.82901001 0.37451172 C159.64534157 0.37488874 160.46167313 0.37526577 161.302742 0.37565422 C163.15652466 0.50149536 163.15652466 0.50149536 164.15652466 1.50149536 C164.25263884 3.15907157 164.2784022 4.82076523 164.27677917 6.48112488 C164.27884117 8.09870445 164.27884117 8.09870445 164.28094482 9.7489624 C164.27734955 10.94226166 164.27375427 12.13556091 164.27005005 13.36502075 C164.27019608 14.61362381 164.2703421 15.86222687 164.27049255 17.14866638 C164.26991357 20.5824053 164.2648842 24.01608474 164.2579186 27.44981313 C164.25168464 31.03461995 164.25108123 34.61942749 164.24989319 38.20423889 C164.24678 44.99699581 164.23856677 51.78973672 164.2285437 58.58248657 C164.21738218 66.3139203 164.21187202 74.04535478 164.20684826 81.77679455 C164.19638415 97.68503744 164.17878494 113.59326434 164.15652466 129.50149536 C164.96089966 129.64587036 165.76527466 129.79024536 166.59402466 129.93899536 C169.15652466 130.50149536 169.15652466 130.50149536 170.15652466 131.50149536 C170.25627498 134.01285641 170.29534649 136.49052951 170.28152466 139.00149536 C170.28539185 139.70403442 170.28925903 140.40657349 170.29324341 141.13040161 C170.28313844 146.37488158 170.28313844 146.37488158 169.15652466 147.50149536 C167.50652466 147.50149536 165.85652466 147.50149536 164.15652466 147.50149536 C164.15652466 153.44149536 164.15652466 159.38149536 164.15652466 165.50149536 C165.80652466 165.50149536 167.45652466 165.50149536 169.15652466 165.50149536 C171.13771821 167.48268892 170.34152877 171.23594601 170.34402466 173.93899536 C170.35627075 174.63315552 170.36851685 175.32731567 170.38113403 176.04251099 C170.38642307 177.86370437 170.27821673 179.68436456 170.15652466 181.50149536 C167.50450062 184.1535194 166.2828372 183.75484481 162.57897949 183.76219177 C161.39298157 183.76927658 160.20698364 183.77636139 158.98504639 183.78366089 C157.02297745 183.77994476 157.02297745 183.77994476 155.02127075 183.77615356 C153.6349561 183.78049912 152.24864386 183.78568175 150.86233521 183.79164124 C147.08928262 183.80506585 143.31633001 183.80560561 139.54325819 183.80307794 C136.39250747 183.80200961 133.24177709 183.80688854 130.09103072 183.81168336 C122.65272294 183.82279254 115.21446564 183.82320939 107.77615356 183.81716919 C100.11110478 183.81114021 92.44624007 183.82340968 84.7812227 183.84473926 C78.19766045 183.86238369 71.6141566 183.86835177 65.03057158 183.86510152 C61.10001544 183.86329153 57.16959031 183.86589545 53.23905563 183.87981606 C49.5372088 183.89243449 45.83564701 183.89041264 42.13380432 183.87740517 C40.13625336 183.87392836 38.13869355 183.88519049 36.14117432 183.89697266 C26.76825368 183.84231834 19.66379921 182.53995533 12.15652466 176.50149536 C5.77063629 169.5045172 3.64562884 162.72197244 3.84011841 153.28274536 C4.67054381 145.98320355 7.92915258 141.47746812 13.15652466 136.50149536 C11.9829541 136.46391113 11.9829541 136.46391113 10.78567505 136.42556763 C7.26327517 136.30999748 3.74116905 136.18709587 0.21902466 136.06399536 C-1.01267456 136.02467896 -2.24437378 135.98536255 -3.51339722 135.94485474 C-5.26813354 135.88201294 -5.26813354 135.88201294 -7.05831909 135.81790161 C-8.68435059 135.76291504 -8.68435059 135.76291504 -10.3432312 135.70681763 C-12.84347534 135.50149536 -12.84347534 135.50149536 -13.84347534 134.50149536 C-13.94322566 131.99013432 -13.98229717 129.51246121 -13.96847534 127.00149536 C-13.97234253 126.2989563 -13.97620972 125.59641724 -13.98019409 124.87258911 C-13.97008912 119.62810914 -13.97008912 119.62810914 -12.84347534 118.50149536 C-11.19347534 118.50149536 -9.54347534 118.50149536 -7.84347534 118.50149536 C-7.84347534 112.56149536 -7.84347534 106.62149536 -7.84347534 100.50149536 C-9.49347534 100.17149536 -11.14347534 99.84149536 -12.84347534 99.50149536 C-14.77689481 97.5680759 -14.01796667 94.12670415 -14.03097534 91.56399536 C-14.04515503 90.29684692 -14.05933472 89.02969849 -14.07394409 87.72415161 C-13.84347534 84.50149536 -13.84347534 84.50149536 -11.84347534 82.50149536 C-9.09735107 82.26098633 -9.09735107 82.26098633 -5.55783081 82.27444458 C-4.9138031 82.27415253 -4.26977539 82.27386047 -3.60623169 82.27355957 C-1.47423907 82.27495463 0.65740548 82.29052362 2.78933716 82.30618286 C4.26621306 82.30991238 5.74309144 82.31275964 7.2199707 82.3147583 C11.10969864 82.32239962 14.99927754 82.34205228 18.88894653 82.36416626 C22.85702498 82.38461401 26.82512748 82.39375772 30.79324341 82.40383911 C38.58107182 82.4252978 46.36877737 82.45943964 54.15652466 82.50149536 C54.15652466 81.84149536 54.15652466 81.18149536 54.15652466 80.50149536 C51.18652466 78.85149536 48.21652466 77.20149536 45.15652466 75.50149536 C45.15652466 74.84149536 45.15652466 74.18149536 45.15652466 73.50149536 C44.49652466 73.50149536 43.83652466 73.50149536 43.15652466 73.50149536 C41.82189941 72.14562988 41.82189941 72.14562988 40.228302 70.20217896 C35.92860075 65.15015117 31.26416935 60.49515182 26.55757523 55.82738113 C24.97485926 54.25760156 23.3954405 52.68456754 21.81677246 51.11071777 C18.47452137 47.77979258 15.12830519 44.45286869 11.78152466 41.12649536 C7.87971604 37.24831553 3.9795643 33.36849809 0.08356857 29.484478 C-1.47271375 27.93467699 -3.03197346 26.3879145 -4.59136963 24.84124756 C-5.53932092 23.89692644 -6.48713342 22.95246597 -7.43478394 22.00784302 C-8.26416473 21.18369904 -9.09354553 20.35955505 -9.94805908 19.51043701 C-12.96606009 16.31167374 -13.18036712 13.9289741 -13.13253784 9.53665161 C-12.67957356 6.34753823 -11.10427102 4.69769688 -8.84347534 2.50149536 C-5.71160201 0.41357981 -3.74554529 -0.10598249 0 0 Z " fill="#080808" transform="translate(49.843475341796875,36.498504638671875)"/>
<path d="M0 0 C33.33 0 66.66 0 101 0 C101 40.92 101 81.84 101 124 C96.05 124 91.1 124 86 124 C87.49739583 121.55859375 88.99479167 119.1171875 90.4921875 116.67578125 C94.16122906 110.16465827 95.29147273 104.09512528 93.4296875 96.75 C92.71749318 94.77084948 91.90771886 92.89640794 91 91 C90.62875 90.13375 90.2575 89.2675 89.875 88.375 C85.65210939 83.02600522 79.51090173 79.72714473 73 78 C69.23398346 77.67068619 65.47415016 77.62787462 61.6953125 77.5859375 C60.61619598 77.56657135 59.53707947 77.5472052 58.42526245 77.5272522 C54.99192105 77.46766058 51.55854576 77.42115239 48.125 77.375 C45.79165236 77.33680147 43.45831854 77.29774865 41.125 77.2578125 C35.41678968 77.16197583 29.70849556 77.07686888 24 77 C24 78.98 24 80.96 24 83 C24.59611084 82.99111755 25.19222168 82.98223511 25.80639648 82.9730835 C32.03603483 82.88427928 38.26549202 82.82412895 44.49560547 82.78027344 C46.81761993 82.76021423 49.13958423 82.73296009 51.46142578 82.69824219 C54.80774345 82.64947459 58.15339059 82.62697357 61.5 82.609375 C62.5305249 82.58872986 63.5610498 82.56808472 64.62280273 82.54681396 C72.01819769 82.544535 77.26935019 83.78069408 83.0234375 88.74609375 C87.6928258 94.5895768 89.48529098 98.9266115 89.31640625 106.50390625 C88.53609594 112.65968755 84.60583103 117.05214483 80 121 C74.05417711 125.13277567 67.59697979 124.39962225 60.65087891 124.34057617 C59.29040547 124.33972922 57.92993065 124.34020637 56.56945801 124.34190369 C52.88799149 124.34276242 49.20681979 124.32515666 45.52542162 124.30418181 C41.67373186 124.28539456 37.82203491 124.28366296 33.9703064 124.28010559 C26.68183515 124.27079112 19.39349932 124.2461855 12.10508764 124.21605712 C3.80524646 124.18249443 -4.49460127 124.16602241 -12.79449344 124.15097082 C-29.86307388 124.11963537 -46.93152261 124.06688658 -64 124 C-64 122.35 -64 120.7 -64 119 C-62.95970013 119.00056554 -62.95970013 119.00056554 -61.89838409 119.0011425 C-45.00471504 119.00826693 -28.11145156 118.98229659 -11.21790314 118.9197216 C-3.04819577 118.89025422 5.12125193 118.87189133 13.29101562 118.87988281 C20.41378072 118.88682174 27.53614379 118.87270857 34.65881014 118.83356392 C38.42857686 118.8135747 42.1977127 118.80395968 45.96751404 118.81957626 C49.52030893 118.83396071 53.07190161 118.82006873 56.62454224 118.78504753 C58.54097763 118.77335462 60.45752293 118.79113993 62.37390137 118.8099823 C69.06358379 118.71350322 73.33553501 118.04244425 78.52552032 113.675951 C81.95047879 109.78300987 82.44062009 106.28480092 82.31640625 101.25 C81.81766928 97.70342601 80.33674249 95.65251851 78 93 C74.27999665 90.32503701 71.71581866 89.62200099 67.15971375 89.60127258 C65.99168716 89.58873444 64.82366058 89.57619629 63.62023926 89.5632782 C62.34781372 89.56471329 61.07538818 89.56614838 59.7644043 89.56762695 C58.40406912 89.55860592 57.04374208 89.54827785 55.6834259 89.53674316 C51.99786758 89.50918685 48.31246355 89.49989057 44.62681556 89.49388909 C40.77237326 89.48450182 36.91804605 89.45829815 33.06367493 89.43388367 C25.76817502 89.39022465 18.47269745 89.36167405 11.17710668 89.33856028 C2.86994834 89.31150538 -5.4370942 89.26759407 -13.74416983 89.22227156 C-30.82938692 89.12943387 -47.91462902 89.05774915 -65 89 C-65 87.02 -65 85.04 -65 83 C-44.54 83 -24.08 83 -3 83 C-3 80.36 -3 77.72 -3 75 C1.89742556 76.41767582 6.16615068 78.56929616 10.6328125 80.9765625 C13.182099 82.26456145 13.182099 82.26456145 17 82 C16.42732628 77.89583836 15.5731146 74.9327865 14 71 C40.73 71 67.46 71 95 71 C95 69.02 95 67.04 95 65 C67.28 65 39.56 65 11 65 C6 56 6 56 6 54 C4.515 53.505 4.515 53.505 3 53 C2.01 52.01 1.02 51.02 0 50 C0 33.5 0 17 0 0 Z " fill="#D5D5D5" transform="translate(107,42)"/>
<path d="M0 0 C2.66165084 0.61896141 3.84334798 1.61831132 5.84841919 3.46292114 C6.54348572 4.10046326 7.23855225 4.73800537 7.9546814 5.39486694 C11.82775652 9.10045774 15.62800017 12.87162526 19.39871216 16.68118286 C20.24829498 17.53455231 21.09787781 18.38792175 21.97320557 19.26715088 C24.66176585 21.96783866 27.3470377 24.67175904 30.03152466 27.37649536 C33.5885779 30.9600655 37.14887798 34.54036323 40.71121216 38.11868286 C41.52887054 38.94463959 42.34652893 39.77059631 43.18896484 40.62158203 C43.94380157 41.37972198 44.69863831 42.13786194 45.47634888 42.91897583 C46.14060883 43.5884726 46.80486877 44.25796936 47.48925781 44.94775391 C49.08943155 46.58570533 49.08943155 46.58570533 51.15652466 47.50149536 C51.15652466 32.32149536 51.15652466 17.14149536 51.15652466 1.50149536 C51.48652466 1.50149536 51.81652466 1.50149536 52.15652466 1.50149536 C52.1619931 2.41231621 52.1619931 2.41231621 52.16757202 3.34153748 C52.20932825 9.65200302 52.27862486 15.96173655 52.36404419 22.27175903 C52.3922992 24.62780441 52.41349106 26.98394538 52.42752075 29.34011841 C52.44888711 32.72383732 52.49550636 36.10640133 52.54714966 39.48977661 C52.5483783 40.54610794 52.54960693 41.60243927 52.5508728 42.69078064 C52.57059143 43.67157089 52.59031006 44.65236115 52.61062622 45.66287231 C52.61950867 46.52669022 52.62839111 47.39050812 52.63754272 48.28050232 C53.32583744 51.22607261 54.71151147 51.85656376 57.15652466 53.50149536 C57.15652466 54.16149536 57.15652466 54.82149536 57.15652466 55.50149536 C58.64152466 55.99649536 58.64152466 55.99649536 60.15652466 56.50149536 C63.97337372 60.56459275 65.53545014 64.25934633 68.15652466 69.50149536 C95.87652466 69.83149536 123.59652466 70.16149536 152.15652466 70.50149536 C152.15652466 72.48149536 152.15652466 74.46149536 152.15652466 76.50149536 C125.42652466 76.50149536 98.69652466 76.50149536 71.15652466 76.50149536 C72.47652466 78.81149536 73.79652466 81.12149536 75.15652466 83.50149536 C74.90652466 86.43899536 74.90652466 86.43899536 74.15652466 88.50149536 C69.46757536 87.94529867 65.95728199 86.61966863 61.78152466 84.43899536 C60.72191528 83.8911438 59.66230591 83.34329224 58.57058716 82.77883911 C57.77394653 82.35731567 56.97730591 81.93579224 56.15652466 81.50149536 C56.15652466 80.84149536 56.15652466 80.18149536 56.15652466 79.50149536 C55.26964966 79.39837036 54.38277466 79.29524536 53.46902466 79.18899536 C50.07384916 78.4843363 47.93710368 77.54603876 45.15652466 75.50149536 C45.15652466 74.84149536 45.15652466 74.18149536 45.15652466 73.50149536 C44.49652466 73.50149536 43.83652466 73.50149536 43.15652466 73.50149536 C41.82189941 72.14562988 41.82189941 72.14562988 40.228302 70.20217896 C35.92860075 65.15015117 31.26416935 60.49515182 26.55757523 55.82738113 C24.97485926 54.25760156 23.3954405 52.68456754 21.81677246 51.11071777 C18.47452137 47.77979258 15.12830519 44.45286869 11.78152466 41.12649536 C7.87971604 37.24831553 3.9795643 33.36849809 0.08356857 29.484478 C-1.47271375 27.93467699 -3.03197346 26.3879145 -4.59136963 24.84124756 C-5.53932092 23.89692644 -6.48713342 22.95246597 -7.43478394 22.00784302 C-8.26416473 21.18369904 -9.09354553 20.35955505 -9.94805908 19.51043701 C-12.96606009 16.31167374 -13.18036712 13.9289741 -13.13253784 9.53665161 C-12.67957356 6.34753823 -11.10427102 4.69769688 -8.84347534 2.50149536 C-5.71160201 0.41357981 -3.74554529 -0.10598249 0 0 Z " fill="#0B1B0B" transform="translate(49.843475341796875,36.498504638671875)"/>
<path d="M0 0 C1.16802658 -0.00274933 2.33605316 -0.00549866 3.53947449 -0.0083313 C5.44811279 0.00245453 5.44811279 0.00245453 7.39530945 0.01345825 C8.75563549 0.01402271 10.11596215 0.01370514 11.47628784 0.01257324 C15.16187823 0.01200007 18.8473381 0.02374866 22.53289819 0.03772116 C26.38727164 0.05023437 30.24164818 0.05139948 34.09603882 0.05377197 C41.39159038 0.059985 48.68708192 0.07639343 55.98260707 0.09647095 C64.28969074 0.11883546 72.59677729 0.12982477 80.90388358 0.13986182 C97.98919501 0.16075981 115.07444803 0.19593235 132.15971375 0.24050903 C132.15971375 2.22050903 132.15971375 4.20050903 132.15971375 6.24050903 C131.45402945 6.24197559 130.74834515 6.24344215 130.02127647 6.24495316 C112.84462158 6.28201659 95.66818224 6.34102505 78.49168968 6.42441177 C70.18522699 6.46420882 61.87885913 6.4965979 53.5723114 6.51150513 C46.33169642 6.52451824 39.09129003 6.55147403 31.85079253 6.5951221 C28.01751061 6.6177448 24.18448604 6.63341925 20.35113144 6.63239288 C16.74110186 6.63164673 13.13164135 6.64957868 9.52175903 6.68167686 C7.56917773 6.69422287 5.61650092 6.68710831 3.66389465 6.67936707 C-4.88548744 6.77746886 -4.88548744 6.77746886 -11.84028625 11.24050903 C-15.24116076 15.09483348 -15.33653573 18.91817665 -15.21138 23.86550903 C-14.69593205 27.16437593 -13.16311363 28.91768166 -10.84028625 31.24050903 C-10.84028625 31.90050903 -10.84028625 32.56050903 -10.84028625 33.24050903 C-6.72655916 34.77753453 -3.30288153 35.49484337 1.08229065 35.51898193 C2.82377129 35.53572716 2.82377129 35.53572716 4.60043335 35.55281067 C5.85991287 35.55497086 7.1193924 35.55713104 8.41703796 35.55935669 C9.76766556 35.56866301 11.11828744 35.57883272 12.46890259 35.58979797 C16.12337733 35.61703287 19.77781365 35.63222798 23.43236303 35.645226 C27.25608556 35.66088513 31.07972998 35.68766645 34.90339661 35.71325684 C42.13864947 35.75999546 49.3739171 35.79676332 56.60924351 35.82992971 C64.8486938 35.86818589 73.08806554 35.91758687 81.32744956 35.96791387 C98.27148076 36.07116057 115.21555747 36.16044452 132.15971375 36.24050903 C132.15971375 38.22050903 132.15971375 40.20050903 132.15971375 42.24050903 C114.30495666 42.33404377 96.45026335 42.40453293 78.59531403 42.44775772 C70.30452269 42.46836322 62.01388379 42.49644517 53.72319031 42.54226685 C46.49511565 42.58219644 39.26715141 42.60795647 32.03896952 42.61686301 C28.2133711 42.62206746 24.38808852 42.63425732 20.56259155 42.66342926 C16.9576022 42.69069547 13.35305707 42.69893168 9.7479744 42.69293976 C7.80283678 42.694555 5.85774692 42.71601901 3.91273499 42.7381897 C-4.07276203 42.70072906 -9.64161303 41.86368844 -15.86372375 36.49441528 C-20.89052765 30.20364624 -22.6683155 25.34433623 -21.84028625 17.24050903 C-20.68668963 11.06134293 -17.70564733 7.67600955 -12.97309875 3.68582153 C-8.72912492 0.80986857 -5.09156457 -0.00926581 0 0 Z " fill="#CE5960" transform="translate(81.84028625488281,171.75949096679688)"/>
<path d="M0 0 C4.89742556 1.41767582 9.16615068 3.56929616 13.6328125 5.9765625 C16.182099 7.26456145 16.182099 7.26456145 20 7 C20.33 6.34 20.66 5.68 21 5 C22.98 5 24.96 5 27 5 C27 5.99 27 6.98 27 8 C27.59611084 7.99111755 28.19222168 7.98223511 28.80639648 7.9730835 C35.03603483 7.88427928 41.26549202 7.82412895 47.49560547 7.78027344 C49.81761993 7.76021423 52.13958423 7.73296009 54.46142578 7.69824219 C57.80774345 7.64947459 61.15339059 7.62697357 64.5 7.609375 C65.5305249 7.58872986 66.5610498 7.56808472 67.62280273 7.54681396 C75.01819769 7.544535 80.26935019 8.78069408 86.0234375 13.74609375 C90.6928258 19.5895768 92.48529098 23.9266115 92.31640625 31.50390625 C91.53609594 37.65968755 87.60583103 42.05214483 83 46 C77.05417711 50.13277567 70.59697979 49.39962225 63.65087891 49.34057617 C62.29040547 49.33972922 60.92993065 49.34020637 59.56945801 49.34190369 C55.88799149 49.34276242 52.20681979 49.32515666 48.52542162 49.30418181 C44.67373186 49.28539456 40.82203491 49.28366296 36.9703064 49.28010559 C29.68183515 49.27079112 22.39349932 49.2461855 15.10508764 49.21605712 C6.80524646 49.18249443 -1.49460127 49.16602241 -9.79449344 49.15097082 C-26.86307388 49.11963537 -43.93152261 49.06688658 -61 49 C-61 47.35 -61 45.7 -61 44 C-59.95970013 44.00056554 -59.95970013 44.00056554 -58.89838409 44.0011425 C-42.00471504 44.00826693 -25.11145156 43.98229659 -8.21790314 43.9197216 C-0.04819577 43.89025422 8.12125193 43.87189133 16.29101562 43.87988281 C23.41378072 43.88682174 30.53614379 43.87270857 37.65881014 43.83356392 C41.42857686 43.8135747 45.1977127 43.80395968 48.96751404 43.81957626 C52.52030893 43.83396071 56.07190161 43.82006873 59.62454224 43.78504753 C61.54097763 43.77335462 63.45752293 43.79113993 65.37390137 43.8099823 C72.06358379 43.71350322 76.33553501 43.04244425 81.52552032 38.675951 C84.95047879 34.78300987 85.44062009 31.28480092 85.31640625 26.25 C84.81766928 22.70342601 83.33674249 20.65251851 81 18 C77.27999665 15.32503701 74.71581866 14.62200099 70.15971375 14.60127258 C68.99168716 14.58873444 67.82366058 14.57619629 66.62023926 14.5632782 C65.34781372 14.56471329 64.07538818 14.56614838 62.7644043 14.56762695 C61.40406912 14.55860592 60.04374208 14.54827785 58.6834259 14.53674316 C54.99786758 14.50918685 51.31246355 14.49989057 47.62681556 14.49388909 C43.77237326 14.48450182 39.91804605 14.45829815 36.06367493 14.43388367 C28.76817502 14.39022465 21.47269745 14.36167405 14.17710668 14.33856028 C5.86994834 14.31150538 -2.4370942 14.26759407 -10.74416983 14.22227156 C-27.82938692 14.12943387 -44.91462902 14.05774915 -62 14 C-62 12.02 -62 10.04 -62 8 C-41.54 8 -21.08 8 0 8 C0 5.36 0 2.72 0 0 Z " fill="#6DAC89" transform="translate(104,117)"/>
<path d="M0 0 C0.78448013 0.00404846 1.56896027 0.00809692 2.37721252 0.01226807 C3.61641197 0.00701111 3.61641197 0.00701111 4.88064575 0.00164795 C7.61982042 -0.00717668 10.35873821 -0.00131767 13.09791565 0.00543213 C14.99598744 0.00408569 16.89405891 0.00214533 18.79212952 -0.00036621 C22.7734861 -0.00331846 26.75475306 0.00098342 30.73609924 0.01031494 C35.84769068 0.02170953 40.9590721 0.0151506 46.07065582 0.00317001 C49.99105928 -0.00404585 53.91141269 -0.00176192 57.83181763 0.0034256 C59.71693954 0.00476285 61.60206595 0.00311174 63.48718262 -0.00153351 C66.1186177 -0.00659427 68.74970937 0.00110505 71.38111877 0.01226807 C72.16559891 0.0082196 72.95007904 0.00417114 73.7583313 0 C79.15063729 0.04252877 79.15063729 0.04252877 81.37916565 2.27105713 C81.5241455 4.85169842 81.5659411 7.32049597 81.50416565 9.89605713 C81.49514221 10.60246338 81.48611877 11.30886963 81.4768219 12.03668213 C81.45324168 13.78161811 81.41737026 15.52638008 81.37916565 17.27105713 C78.22578881 18.84774555 74.84352221 18.418321 71.38111877 18.4163208 C70.14191933 18.42135872 70.14191933 18.42135872 68.87768555 18.42649841 C66.13858042 18.43602115 63.39953631 18.43795207 60.66041565 18.43902588 C58.7623441 18.44223711 56.8642728 18.44560108 54.96620178 18.44911194 C50.9848727 18.45510622 47.00356534 18.45695149 43.02223206 18.45635986 C37.91065605 18.45625813 32.7992186 18.46992091 27.68767548 18.48713207 C23.76728165 18.49822737 19.8469216 18.50027985 15.92651367 18.49975014 C14.04138714 18.50093358 12.15625983 18.50537564 10.27114868 18.5130825 C7.63973659 18.52283439 5.00862909 18.5200237 2.37721252 18.51397705 C1.20049232 18.52240631 1.20049232 18.52240631 0 18.53100586 C-5.39251763 18.49937385 -5.39251763 18.49937385 -7.62083435 16.27105713 C-7.88645935 13.08355713 -7.88645935 13.08355713 -7.87083435 9.27105713 C-7.8759906 8.01293213 -7.88114685 6.75480713 -7.88645935 5.45855713 C-7.42292145 -0.10389767 -5.00968338 0.03951105 0 0 Z " fill="#0B0A0A" transform="translate(120.62083435058594,47.72894287109375)"/>
<path d="M0 0 C38.94 0 77.88 0 118 0 C118 1.98 118 3.96 118 6 C79.06 6 40.12 6 0 6 C0 4.02 0 2.04 0 0 Z " fill="#CBC9CA" transform="translate(90,196)"/>
<path d="M0 0 C38.94 0 77.88 0 118 0 C118 1.98 118 3.96 118 6 C79.06 6 40.12 6 0 6 C0 4.02 0 2.04 0 0 Z " fill="#CBC9CA" transform="translate(90,184)"/>
<path d="M0 0 C38.94 0 77.88 0 118 0 C118 1.98 118 3.96 118 6 C79.06 6 40.12 6 0 6 C0 4.02 0 2.04 0 0 Z " fill="#CBC9CA" transform="translate(48,137)"/>
<path d="M0 0 C3.35999018 1.45868754 5.55203106 3.30868948 8.12597656 5.89892578 C8.92650452 6.6996048 9.72703247 7.50028381 10.55181885 8.32522583 C11.83327789 9.62216873 11.83327789 9.62216873 13.140625 10.9453125 C14.02280701 11.8303244 14.90498901 12.7153363 15.81390381 13.62716675 C18.15194543 15.97450131 20.48555874 18.32606785 22.81713867 20.67980957 C25.19996526 23.08313927 27.58850348 25.48077767 29.9765625 27.87890625 C34.65631862 32.58071467 39.33031867 37.28818664 44 42 C43.07347299 43.17539996 42.13336613 44.34010577 41.1875 45.5 C40.66542969 46.1496875 40.14335938 46.799375 39.60546875 47.46875 C38 49 38 49 35 49 C33.0827179 47.44348145 33.0827179 47.44348145 30.89575195 45.23632812 C30.07512772 44.41547729 29.25450348 43.59462646 28.40901184 42.74890137 C27.52767075 41.85207642 26.64632965 40.95525146 25.73828125 40.03125 C24.83248825 39.12121216 23.92669525 38.21117432 22.99345398 37.27355957 C20.58493738 34.85358629 18.18556485 32.42473949 15.78796387 29.99395752 C13.33999601 27.51530652 10.88351798 25.045122 8.42773438 22.57421875 C3.61010924 17.72441501 -1.19791214 12.86518725 -6 8 C-4.44805246 4.67240077 -2.69378051 2.51419515 0 0 Z " fill="#C59A74" transform="translate(62,56)"/>
<path d="M0 0 C38.61 0 77.22 0 117 0 C117 1.65 117 3.3 117 5 C78.39 5 39.78 5 0 5 C0 3.35 0 1.7 0 0 Z " fill="#D4D2D3" transform="translate(49,149)"/>
<path d="M0 0 C29.37 0 58.74 0 89 0 C89 1.98 89 3.96 89 6 C59.63 6 30.26 6 0 6 C0 4.02 0 2.04 0 0 Z " fill="#0F0F0F" transform="translate(113,84)"/>
<path d="M0 0 C29.37 0 58.74 0 89 0 C89 1.98 89 3.96 89 6 C59.63 6 30.26 6 0 6 C0 4.02 0 2.04 0 0 Z " fill="#0B0B0B" transform="translate(113,72)"/>
<path d="M0 0 C25.41 0 50.82 0 77 0 C77 1.98 77 3.96 77 6 C51.59 6 26.18 6 0 6 C0 4.02 0 2.04 0 0 Z " fill="#C89B76" transform="translate(119,54)"/>
<path d="M0 0 C27.39 0 54.78 0 83 0 C83 1.65 83 3.3 83 5 C56.27 5 29.54 5 2 5 C1.34 3.35 0.68 1.7 0 0 Z " fill="#010101" transform="translate(118,108)"/>
<path d="M0 0 C10.89 0 21.78 0 33 0 C30.15633854 2.1327461 28.21749036 3.47158068 25.125 4.875 C18.0594772 8.32255565 12.13925793 13.76055228 7.8125 20.3125 C7.214375 21.199375 6.61625 22.08625 6 23 C5.34 23 4.68 23 4 23 C3.01 25.97 2.02 28.94 1 32 C0.67 32 0.34 32 0 32 C0 21.44 0 10.88 0 0 Z " fill="#787F85" transform="translate(0,0)"/>
<path d="M0 0 C25.41 0 50.82 0 77 0 C77 1.65 77 3.3 77 5 C51.59 5 26.18 5 0 5 C0 3.35 0 1.7 0 0 Z " fill="#020202" transform="translate(125,96)"/>
<path d="M0 0 C10.23 0 20.46 0 31 0 C31 8.91 31 17.82 31 27 C27 23 27 23 25.75 20.6875 C23.55936705 17.32331368 20.84572171 15.16082234 17.7421875 12.6484375 C16 11 16 11 15 8 C12.27564363 6.92414941 12.27564363 6.92414941 9 6 C6.64353401 5.04798774 4.32671974 4.02375668 2 3 C2 2.34 2 1.68 2 1 C1.34 0.67 0.68 0.34 0 0 Z " fill="#4E5357" transform="translate(225,0)"/>
<path d="M0 0 C2.22437651 2.22437651 3.21222673 4.25668493 4.625 7.0625 C9.28571731 15.68426277 14.93709503 21.81309833 23.3125 26.90625 C23.869375 27.2671875 24.42625 27.628125 25 28 C25 28.33 25 28.66 25 29 C16.75 29 8.5 29 0 29 C0 19.43 0 9.86 0 0 Z " fill="#8B8F95" transform="translate(0,227)"/>
<path d="M0 0 C0.33 0 0.66 0 1 0 C1 7.26 1 14.52 1 22 C-6.26 22 -13.52 22 -21 22 C-15.60606061 16.60606061 -15.60606061 16.60606061 -12.1875 14.375 C-7.60724665 11.06607173 -4.72271608 6.82786118 -1.56640625 2.1953125 C-1.04949219 1.47085938 -0.53257812 0.74640625 0 0 Z " fill="#7D8185" transform="translate(255,234)"/>
<path d="M0 0 C0 5.94 0 11.88 0 18 C-7 18 -7 18 -9.9375 15.4375 C-11.72861311 12.91447024 -12.06468531 11.63129375 -12.625 8.4375 C-11.19695389 0.58324638 -7.56002509 0 0 0 Z " fill="#959394" transform="translate(84,184)"/>
<path d="M0 0 C6 0 6 0 9.375 2.0625 C12 5 12 5 12.6875 8.5 C11.84359738 12.79623151 10.32096537 14.24602872 7 17 C6.67 17.33 6.34 17.66 6 18 C4.02 18 2.04 18 0 18 C0 12.06 0 6.12 0 0 Z " fill="#969495" transform="translate(172,137)"/>
<path d="M0 0 C4.06080451 1.66123821 7.30826561 4.46239842 9.75 8.125 C9.4839689 11.02419602 8.76024835 12.11192452 6.9375 14.4375 C4.75 16.125 4.75 16.125 2.81640625 15.8984375 C-0.72804766 14.57177989 -3.06846575 12.17491197 -5.25 9.125 C-5.84708143 5.74153855 -5.85786845 4.11678536 -4.0625 1.1875 C-2.25 0.125 -2.25 0.125 0 0 Z " fill="#8E7054" transform="translate(48.25,41.875)"/>
<path d="M0 0 C25.41 0 50.82 0 77 0 C77 1.98 77 3.96 77 6 C75.02 6 73.04 6 71 6 C71 4.35 71 2.7 71 1 C47.9 1 24.8 1 1 1 C1 2.65 1 4.3 1 6 C0.67 6 0.34 6 0 6 C0 4.02 0 2.04 0 0 Z " fill="#9C795B" transform="translate(119,54)"/>
<path d="M0 0 C3 1 3 1 4.16796875 2.77734375 C4.50441406 3.49019531 4.84085938 4.20304687 5.1875 4.9375 C5.53167969 5.64777344 5.87585938 6.35804687 6.23046875 7.08984375 C7 9 7 9 7 11 C2.94718288 9.77472971 -0.44360764 8.30119506 -4 6 C-2.84826645 3.53199953 -1.95216435 1.95216435 0 0 Z " fill="#D9A955" transform="translate(108,104)"/>
<path d="M0 0 C0.66 0.33 1.32 0.66 2 1 C1.34 2.32 0.68 3.64 0 5 C-0.99 5 -1.98 5 -3 5 C-3.1546875 5.8971875 -3.1546875 5.8971875 -3.3125 6.8125 C-4 9 -4 9 -5.375 10.3125 C-7.81661262 12.8480208 -8.70779103 15.7387107 -10 19 C-10.66 18.67 -11.32 18.34 -12 18 C-11.40477663 16.55877387 -10.79842381 15.12214132 -10.1875 13.6875 C-9.68283203 12.48673828 -9.68283203 12.48673828 -9.16796875 11.26171875 C-7.99714877 8.99447872 -6.86251264 7.71047079 -5 6 C-4.0915608 4.94825772 -3.19514197 3.88598347 -2.3125 2.8125 C-1.549375 1.884375 -0.78625 0.95625 0 0 Z " fill="#3F4243" transform="translate(12,14)"/>
<path d="M0 0 C1.98 0 3.96 0 6 0 C6 1.98 6 3.96 6 6 C4.02 6 2.04 6 0 6 C0 4.02 0 2.04 0 0 Z " fill="#8D6E53" transform="translate(190,54)"/>
<path d="M0 0 C0.66 0.33 1.32 0.66 2 1 C0.95285076 2.32477959 -0.11344669 3.63443746 -1.1875 4.9375 C-1.77917969 5.66839844 -2.37085938 6.39929688 -2.98046875 7.15234375 C-5.32505203 9.29738803 -6.88391498 9.66094412 -10 10 C-8.5741914 6.54804233 -6.90253666 4.8985744 -3.875 2.75 C-3.15054687 2.22921875 -2.42609375 1.7084375 -1.6796875 1.171875 C-1.12539063 0.78515625 -0.57109375 0.3984375 0 0 Z " fill="#3A4043" transform="translate(24,4)"/>
<path d="M0 0 C2.69504819 2.69504819 5 6.08360477 5 10 C4.34 10 3.68 10 3 10 C2.67 10.66 2.34 11.32 2 12 C-0.13586678 8.79619983 -0.23132175 7.98060033 -0.125 4.3125 C-0.10695312 3.50425781 -0.08890625 2.69601563 -0.0703125 1.86328125 C-0.04710937 1.24839844 -0.02390625 0.63351563 0 0 Z " fill="#75797C" transform="translate(0,227)"/>
<path d="M0 0 C3.68754757 0.49831724 5.60490662 1.10067643 8 4 C5.36 4 2.72 4 0 4 C0 2.68 0 1.36 0 0 Z " fill="#DADBDA" transform="translate(105,118)"/>
<path d="M0 0 C-0.33 0.99 -0.66 1.98 -1 3 C-1.66 3 -2.32 3 -3 3 C-2.67 3.99 -2.34 4.98 -2 6 C-3.32 5.67 -4.64 5.34 -6 5 C-5.625 3.0625 -5.625 3.0625 -5 1 C-3 0 -3 0 0 0 Z " fill="#111315" transform="translate(32,250)"/>
<path d="M0 0 C0.66 0.33 1.32 0.66 2 1 C-0.64 3.64 -3.28 6.28 -6 9 C-6 6 -6 6 -3.5625 3.375 C-2.716875 2.59125 -1.87125 1.8075 -1 1 C-0.67 0.67 -0.34 0.34 0 0 Z " fill="#2A1213" transform="translate(74,179)"/>
<path d="M0 0 C0.99 0.33 1.98 0.66 3 1 C1.90809958 3.18380083 0.8590123 4.42698959 -1 6 C-1.99 6 -2.98 6 -4 6 C-2.84826645 3.53199953 -1.95216435 1.95216435 0 0 Z " fill="#C49C4D" transform="translate(108,104)"/>
</svg>
